<?xml version="1.0" encoding="utf-8"?>
<!-- Generator: Adobe Illustrator 19.2.1, SVG Export Plug-In . SVG Version: 6.00 Build 0)  -->
<svg version="1.1" id="Layer_1" xmlns="http://www.w3.org/2000/svg" xmlns:xlink="http://www.w3.org/1999/xlink" x="0px" y="0px"
	 viewBox="0 0 15.3 12" style="enable-background:new 0 0 15.3 12;" xml:space="preserve">
<style type="text/css">
	.st0{fill:#999999;}
</style>
<g>
	<g>
		<path class="st0" d="M13.4,12H1.9c-1,0-1.8-0.8-1.8-1.8V1.7C0.2,0.7,1,0,1.9,0h11.5c1,0,1.8,0.8,1.8,1.8v8.5
			C15.2,11.2,14.4,12,13.4,12z M2.2,10h11V5.3c-1.1,0.9-2.1,1.6-3,2.4C9.5,8.3,8.7,9,7.7,9S5.8,8.3,5.2,7.8C4.3,7,3.3,6.2,2.2,5.3
			V10z M2.2,2c0.1,0.6,0.4,1.1,0.9,1.6c1,0.8,2.1,1.7,3.1,2.5l0.2,0.2C6.8,6.5,7.4,7,7.7,7C8,7,8.6,6.4,8.9,6.2L9.1,6
			c1-0.8,2.1-1.7,3.1-2.5c0.5-0.4,1-1.1,1-1.5l0,0H2.2z"/>
	</g>
</g>
</svg>
