<?xml version="1.0" encoding="utf-8"?>
<!-- Generator: Adobe Illustrator 22.0.1, SVG Export Plug-In . SVG Version: 6.00 Build 0)  -->
<svg version="1.1" id="Layer_1" xmlns="http://www.w3.org/2000/svg" xmlns:xlink="http://www.w3.org/1999/xlink" x="0px" y="0px"
	 viewBox="0 0 16 16" style="enable-background:new 0 0 16 16;" xml:space="preserve">
<style type="text/css">
	.st0{fill:#CCCCCC;}
</style>
<path class="st0" d="M14.1,10.5c1.2-4.7,1.5-6.7-1.2-8.9C12,0.8,12.7,0.3,11.8,0c-0.9-0.3-0.6,0.6-1.8,0.5c-3.3,0-4.3,1.7-6.4,6.1
	c-0.9,1.9-2.3,0.8-3,2.7c-0.5,1.4,2,4.3,5.9,5.7c3.9,1.5,7.6,0.9,8.1-0.5C15.4,12.6,13.6,12.5,14.1,10.5z M11.4,14.4
	c-1.3,0-2.8-0.3-4.3-0.9C5.4,12.9,3.9,12,3,11c-0.8-0.8-0.9-1.3-0.9-1.4c0-0.1,0.5-0.5,2-0.5c1.3,0,2.8,0.3,4.3,0.9
	c3.7,1.4,5.2,3.4,5,3.9C13.4,14,12.9,14.4,11.4,14.4z M7.1,10.6L7.1,10.6c-0.3,1,0.5,2.1,1.9,2.7c1.1,0.4,2.2,0.3,2.7-0.3
	c-0.8-0.7-2.1-1.5-3.9-2.2C7.6,10.8,7.3,10.7,7.1,10.6z"/>
</svg>
