<svg id="Layer_1" data-name="Layer 1" xmlns="http://www.w3.org/2000/svg" viewBox="0 0 11.93 11.93"><defs><style>.cls-1{fill:#999;}</style></defs><title>question</title><path class="cls-1" d="M7,9.73V8.24A0.25,0.25,0,0,0,6.71,8H5.22A0.25,0.25,0,0,0,5,8.24V9.73a0.25,0.25,0,0,0,.25.25H6.71A0.25,0.25,0,0,0,7,9.73H7Zm2-5.22A2.79,2.79,0,0,0,6.12,2,3.15,3.15,0,0,0,3.24,3.68,0.24,0.24,0,0,0,3.3,4l1,0.78a0.24,0.24,0,0,0,.15,0,0.25,0.25,0,0,0,.19-0.09A3.4,3.4,0,0,1,5.33,4,1.24,1.24,0,0,1,6,3.83a0.89,0.89,0,0,1,1,.66,0.87,0.87,0,0,1-.68.82A2.11,2.11,0,0,0,5,7V7.24a0.25,0.25,0,0,0,.25.25H6.71A0.25,0.25,0,0,0,7,7.24H7a1.17,1.17,0,0,1,.59-0.77,2.16,2.16,0,0,0,1.4-2h0Zm3,1.49A6,6,0,1,1,6,0a6,6,0,0,1,6,6h0Z" transform="translate(0 -0.04)"/></svg>